HIERARCHY
ROOT hip
{
  OFFSET 0 0 0
  CHANNELS 6 Xposition Yposition Zposition Zrotation Yrotation Xrotation
  JOINT abdomen
  {
    OFFSET 0 20.6881 -0.73152
    CHANNELS 3 Zrotation Xrotation Yrotation
    JOINT chest
    {
      OFFSET 0 11.7043 -0.48768
      CHANNELS 3 Zrotation Xrotation Yrotation
      JOINT neck
      {
        OFFSET 0 22.1894 -2.19456
        CHANNELS 3 Zrotation Xrotation Yrotation
        JOINT head
        {
          OFFSET -0.24384 7.07133 1.2192
          CHANNELS 3 Zrotation Xrotation Yrotation
          JOINT leftEye
          {
            OFFSET 4.14528 8.04674 8.04672
            CHANNELS 3 Zrotation Xrotation Yrotation
            End Site
            {
              OFFSET 1 0 0
            }
          }
          JOINT rightEye
          {
            OFFSET -3.6576 8.04674 8.04672
            CHANNELS 3 Zrotation Xrotation Yrotation
            End Site
            {
              OFFSET 1 0 0
            }
          }
        }
      }
      JOINT rCollar
      {
        OFFSET -2.68224 19.2634 -4.8768
        CHANNELS 3 Zrotation Xrotation Yrotation
        JOINT rShldr
        {
          OFFSET -8.77824 -1.95073 1.46304
          CHANNELS 3 Zrotation Xrotation Yrotation
          JOINT rForeArm
          {
            OFFSET -28.1742 -1.7115 0.48768
            CHANNELS 3 Zrotation Xrotation Yrotation
            JOINT rHand
            {
              OFFSET -22.5879 0.773209 7.07136
              CHANNELS 3 Zrotation Xrotation Yrotation
              JOINT rThumb1
              {
                OFFSET -1.2192 -0.487915 3.41376
                CHANNELS 3 Zrotation Xrotation Yrotation
                JOINT rThumb2
                {
                  OFFSET -3.37035 -0.52449 3.41376
                  CHANNELS 3 Zrotation Xrotation Yrotation
                  End Site
                  {
                    OFFSET -1.78271 -1.18214 1.43049
                  }
                }
              }
              JOINT rIndex1
              {
                OFFSET -7.75947 0.938293 5.60832
                CHANNELS 3 Zrotation Xrotation Yrotation
                JOINT rIndex2
                {
                  OFFSET -2.54057 -0.884171 1.56538
                  CHANNELS 3 Zrotation Xrotation Yrotation
                  End Site
                  {
                    OFFSET -1.62519 -0.234802 1.16502
                  }
                }
              }
              JOINT rMid1
              {
                OFFSET -8.24714 1.18213 3.41376
                CHANNELS 3 Zrotation Xrotation Yrotation
                JOINT rMid2
                {
                  OFFSET -3.10165 -0.590103 1.0647
                  CHANNELS 3 Zrotation Xrotation Yrotation
                  End Site
                  {
                    OFFSET -2.48547 -0.328903 0.83742
                  }
                }
              }
              JOINT rRing1
              {
                OFFSET -8.82822 0.546677 1.51678
                CHANNELS 3 Zrotation Xrotation Yrotation
                JOINT rRing2
                {
                  OFFSET -2.60934 -0.819778 -0.0198488
                  CHANNELS 3 Zrotation Xrotation Yrotation
                  End Site
                  {
                    OFFSET -2.33842 -0.294052 0.168128
                  }
                }
              }
              JOINT rPinky1
              {
                OFFSET -8.27202 -0.0477905 -0.4584
                CHANNELS 3 Zrotation Xrotation Yrotation
                JOINT rPinky2
                {
                  OFFSET -1.82734 -0.647385 -0.700984
                  CHANNELS 3 Zrotation Xrotation Yrotation
                  End Site
                  {
                    OFFSET -1.69225 -0.51767 -0.607171
                  }
                }
              }
            }
          }
        }
      }
      JOINT lCollar
      {
        OFFSET 2.68224 19.2634 -4.8768
        CHANNELS 3 Zrotation Xrotation Yrotation
        JOINT lShldr
        {
          OFFSET 8.77824 -1.95073 1.46304
          CHANNELS 3 Zrotation Xrotation Yrotation
          JOINT lForeArm
          {
            OFFSET 28.1742 -1.7115 0.48768
            CHANNELS 3 Zrotation Xrotation Yrotation
            JOINT lHand
            {
              OFFSET 22.5879 0.773209 7.07136
              CHANNELS 3 Zrotation Xrotation Yrotation
              JOINT lThumb1
              {
                OFFSET 1.2192 -0.487915 3.41376
                CHANNELS 3 Zrotation Xrotation Yrotation
                JOINT lThumb2
                {
                  OFFSET 3.37035 -0.52449 3.41376
                  CHANNELS 3 Zrotation Xrotation Yrotation
                  End Site
                  {
                    OFFSET 1.78271 -1.18214 1.43049
                  }
                }
              }
              JOINT lIndex1
              {
                OFFSET 7.75947 0.938293 5.60832
                CHANNELS 3 Zrotation Xrotation Yrotation
                JOINT lIndex2
                {
                  OFFSET 2.54057 -0.884171 1.56538
                  CHANNELS 3 Zrotation Xrotation Yrotation
                  End Site
                  {
                    OFFSET 1.62519 -0.234802 1.16502
                  }
                }
              }
              JOINT lMid1
              {
                OFFSET 8.24714 1.18213 3.41376
                CHANNELS 3 Zrotation Xrotation Yrotation
                JOINT lMid2
                {
                  OFFSET 3.10165 -0.590103 1.0647
                  CHANNELS 3 Zrotation Xrotation Yrotation
                  End Site
                  {
                    OFFSET 2.48547 -0.328903 0.83742
                  }
                }
              }
              JOINT lRing1
              {
                OFFSET 8.82822 0.546677 1.51678
                CHANNELS 3 Zrotation Xrotation Yrotation
                JOINT lRing2
                {
                  OFFSET 2.60934 -0.819778 -0.0198488
                  CHANNELS 3 Zrotation Xrotation Yrotation
                  End Site
                  {
                    OFFSET 2.33842 -0.294052 0.168128
                  }
                }
              }
              JOINT lPinky1
              {
                OFFSET 8.27202 -0.0477905 -0.4584
                CHANNELS 3 Zrotation Xrotation Yrotation
                JOINT lPinky2
                {
                  OFFSET 1.82734 -0.647385 -0.700984
                  CHANNELS 3 Zrotation Xrotation Yrotation
                  End Site
                  {
                    OFFSET 1.69225 -0.51767 -0.607171
                  }
                }
              }
            }
          }
        }
      }
    }
  }
  JOINT rButtock
  {
    OFFSET -8.77824 4.35084 1.2192
    CHANNELS 3 Zrotation Xrotation Yrotation
    JOINT rThigh
    {
      OFFSET 0 -1.70687 -2.19456
      CHANNELS 3 Zrotation Xrotation Yrotation
      JOINT rShin
      {
        OFFSET 0 -36.8199 0.73152
        CHANNELS 3 Zrotation Xrotation Yrotation
        JOINT rFoot
        {
          OFFSET 0.73152 -45.1104 -5.12064
          CHANNELS 3 Zrotation Xrotation Yrotation
          End Site
          {
            OFFSET -1.1221 -3.69964 12.103
          }
        }
      }
    }
  }
  JOINT lButtock
  {
    OFFSET 8.77824 4.35084 1.2192
    CHANNELS 3 Zrotation Xrotation Yrotation
    JOINT lThigh
    {
      OFFSET 0 -1.70687 -2.19456
      CHANNELS 3 Zrotation Xrotation Yrotation
      JOINT lShin
      {
        OFFSET 0 -36.8199 0.73152
        CHANNELS 3 Zrotation Xrotation Yrotation
        JOINT lFoot
        {
          OFFSET -0.73152 -45.1104 -5.12064
          CHANNELS 3 Zrotation Xrotation Yrotation
          End Site
          {
            OFFSET 1.1221 -3.69964 12.103
          }
        }
      }
    }
  }
}
MOTION
Frames:	5
Frame Time:	0.03333
30.3896 79.2214 -18.3276 49.471031 46.326435 44.989237 -15.850437 23.42875 35.529713 -7.894248 -6.637523 -28.472782 -1.729504 13.625054 74.895483 -28.059228 -2.05676 -40.987286 -20.415418 -0.383002 2.126756 -3.255067 -0.070153 2.468634 -165.240865 -30.108197 167.32318 169.051693 -14.539363 -172.068195 -170.146906 23.850604 43.947126 149.36787 -41.090629 135.54324 104.141267 -59.335324 40.426602 -139.536276 -1.266208 96.744893 -0.88445 18.286151 3.686619 -106.877352 49.718997 76.589849 -1.48735 -0.093784 -10.269212 -25.463139 44.399043 18.72168 -101.575594 81.35327 93.801669 -172.869781 -5.577501 137.012573 -148.907053 53.765619 -165.673746 -117.04301 -77.923841 -122.906885 153.930427 -7.705572 -169.281638 33.509387 7.469069 0.242891 167.881385 60.35235 105.999902 9.878935 -11.634999 9.582875 90.980499 43.354283 -47.34327 -4.346515 -34.355089 -36.836651 -173.614025 -59.800093 -101.873022 -153.802751 -67.456164 -97.700009 -5.015137 -28.452967 5.036846 9.669611 23.892736 -18.667518 53.677754 -80.780796 85.616097 125.47646 39.545943 -138.723438 89.529657 -48.204348 101.840142 88.877555 -55.068674 84.90932 -158.561507 74.429071 -22.177354 152.446256 33.706509 -180.0 33.335283 -61.573144 -25.33839 -69.48654 -22.243964 -162.779648 0.056996 -1.293128 2.523956 80.397775 -51.874442 78.736402 134.191256 52.832829 -57.619653 -34.862204 51.363108 -53.08821
30.965500000000002 80.8443 -18.745700000000003 49.726601 41.958953 44.281868 -15.334508 23.100615 -72.865724 7.163519 -8.679199 81.754128 -0.689823 16.185236 94.740982 -30.185542 10.189846 -59.264974 -29.019518 -2.468548 9.517993 0.741927 -0.00746 -1.152093 -7.965724 11.322142 1.139298 -125.38842 16.617486 158.466486 -156.856075 -26.036222 -73.216574 0.372619 23.520486 2.232685 -145.401619 5.608288 95.839148 179.370346 -34.01526 88.778755 -23.77482 40.639651 22.866204 85.784012 -69.988888 44.648045 -8.271267 19.175982 -10.090916 2.617985 -0.159106 8.821063 -165.610388 -29.482054 -159.694584 161.633591 22.957613 -152.268178 3.500951 45.003757 18.100895 25.099977 -3.672384 -4.234191 2.928272 25.635477 -3.565472 110.639717 21.853479 -153.890806 167.100451 33.70858 111.842186 7.728125 -11.289912 10.581455 10.834752 7.147005 4.17008 -178.521989 -62.537021 -79.56845 168.112638 -41.922117 -111.630666 161.530718 8.636734 -125.866232 147.99786 36.293155 -129.332089 3.116153 6.85467 1.092617 -16.904543 -13.479258 -7.519246 6.865825 -44.976052 2.337815 122.717046 -13.302403 143.986012 -4.127014 0.04975 -4.904694 39.257809 18.200001 41.785175 -81.25746 0.194885 -90.02997 -49.32413 22.866687 79.527848 47.796843 -38.804944 -29.417249 11.68759 -0.778305 11.306304 63.470668 -52.02941 58.405879 127.0485 68.769736 -61.500679 8.502885 -44.993086 -86.075873
31.8369 82.17060000000001 -19.583000000000002 49.548183 36.08474 42.886418 -19.8048 23.746231 -76.907166 8.694117 -8.201004 88.364957 -15.137462 8.560662 -13.433547 11.727598 -21.666772 48.618766 -42.543216 -2.563365 6.578192 4.123832 -0.083459 -2.317818 -58.370346 -83.899981 -75.289366 15.809288 -2.154013 -20.732112 -56.444255 -10.137632 -179.316209 50.588456 -57.655371 39.607166 -2.111434 19.439579 -1.036997 -119.377722 -4.390817 101.789547 -46.113396 49.599714 42.371494 -168.239465 1.127951 117.592813 -7.730573 1.79304 -14.962305 -147.534014 10.919802 125.236609 -27.524428 25.46266 3.235531 73.88984 -46.677334 27.656812 54.776046 86.415734 -18.620088 -77.291626 -59.236344 -88.156411 -4.718047 -26.622518 5.457527 118.726728 -26.831219 156.848132 47.309556 -49.95339 140.397914 -172.801692 -34.168732 -136.524537 4.965057 2.207408 5.197071 114.776213 -6.785345 -92.748079 9.730518 4.076642 -10.748758 -26.921185 13.003137 -9.417537 170.901984 -9.83806 -144.00147 168.708563 1.258698 -137.577042 134.961024 -67.762178 172.875045 -12.942932 1.381872 -17.051839 116.226848 60.279642 179.320582 -4.311999 -2.291107 5.367822 -7.382833 -6.822836 8.638287 -24.910668 -24.355757 -48.394632 -41.888158 42.378047 170.969862 -95.848968 -22.130883 176.066861 91.881098 56.057281 59.633476 -89.641022 -16.586048 0.934039 74.48426 56.370367 -77.98511 67.913286 -10.273039 -27.244794
32.7117 83.7121 -20.7484 49.548653 31.007456 42.206416 -24.614172 22.378593 -129.727673 10.711056 2.446215 142.418149 -14.275404 10.208268 -14.844074 10.599695 -23.492844 50.191256 -52.835408 1.774406 -3.570875 6.351491 -0.402269 -7.240545 -160.146635 -47.931932 173.68403 -56.345629 -67.275986 -59.249425 -158.360916 -43.864739 -66.307769 -0.407846 21.577237 -0.600595 59.827906 -45.098609 5.392743 -7.431473 -38.582295 -25.420209 -129.853346 7.036561 122.007486 -45.881613 70.964261 32.529345 -163.908774 -58.907554 171.046766 -145.409008 24.540478 155.226766 -25.948748 0.69792 -1.31832 -92.214815 50.256082 144.977994 -152.00697 18.81351 -132.467684 -102.096644 -43.714686 -95.92301 159.038892 -49.234941 -168.462362 27.876329 19.191225 12.178596 -65.721939 23.538458 -7.669024 39.878977 58.115227 -17.404688 -69.784315 -53.059559 -21.9408 105.896112 20.93864 -69.499683 102.004879 36.450047 -77.132074 85.560735 32.317259 -42.247814 2.510738 -23.392728 4.596294 1.317509 -72.093239 35.088502 138.268998 -67.017816 172.022617 81.436531 65.400535 -90.643009 65.595313 -62.379512 87.577808 137.058325 9.367507 154.870029 50.081306 33.354303 57.827143 -105.426313 26.316258 -56.146174 -35.336763 34.315349 -20.620831 47.314278 26.77471 21.867957 4.796288 -6.888564 -5.57141 64.893461 -14.222148 -67.211513 -64.372984 -23.925764 25.770497 129.882784 30.750452 -67.182948
33.4054 85.16359999999999 -22.1557 49.179756 26.405034 41.887428 -31.943032 25.128225 55.741977 -11.919016 -7.518028 -42.197685 -17.692588 16.846616 -55.121587 29.699281 -13.135475 91.920543 -56.209341 6.091601 -11.37952 7.864254 -0.860992 -12.476676 -159.922466 -29.666763 167.831651 167.131054 50.439574 -167.332963 -5.790683 41.42695 108.257103 -3.814855 27.108162 -1.767945 -5.021395 20.03398 1.311933 -137.463558 -36.644703 106.587752 -126.036975 9.370334 121.725038 -84.338893 -83.389979 -144.602689 -169.172508 -46.22233 161.436191 -136.879707 -63.076873 -179.827603 -168.056309 -13.770104 -176.787715 -6.047187 32.587394 -25.915783 178.675425 53.926354 -124.83556 -16.910594 2.060225 -5.233261 -6.428888 -26.581377 3.817357 -42.878852 6.248299 27.037609 -10.435507 -35.495424 -49.642401 8.855592 14.628246 2.825819 66.029622 41.599502 -37.10653 -18.273096 -37.810931 13.736118 111.312819 38.660603 -88.381571 115.428199 45.284363 -61.850097 160.924066 17.927387 -141.860302 61.614934 42.014056 -50.13265 -4.304362 -28.369708 -2.452513 131.259797 -65.04092 143.313271 46.326138 -54.919477 71.324352 -5.293901 -65.602217 10.14621 1.855738 -7.512362 13.918648 -43.95612 -19.469293 -180.0 -8.443309 -38.160172 175.143316 107.243729 -48.152092 -4.328534 72.035495 15.715771 47.258107 -26.941979 -12.205063 -81.67613 -53.138648 13.606388 -102.884183 174.788953 28.85551 167.141825
